<?xml version="1.0" standalone="no"?>
<!DOCTYPE svg PUBLIC "-//W3C//DTD SVG 20010904//EN"
 "http://www.w3.org/TR/2001/REC-SVG-20010904/DTD/svg10.dtd">
<svg version="1.0" xmlns="http://www.w3.org/2000/svg"
 width="1280.000000pt" height="402.000000pt" viewBox="0 0 1280.000000 402.000000"
 preserveAspectRatio="xMidYMid meet">
<metadata>
Created by potrace 1.15, written by Peter Selinger 2001-2017
</metadata>
<g transform="translate(0.000000,402.000000) scale(0.100000,-0.100000)"
fill="#000000" stroke="none">
<path d="M1890 3435 c-238 -44 -540 -206 -725 -390 -96 -96 -146 -169 -198
-290 -66 -153 -82 -229 -81 -395 1 -123 5 -159 27 -240 14 -52 39 -124 55
-160 70 -156 242 -401 386 -549 156 -160 537 -469 916 -741 342 -246 418 -310
444 -371 l13 -31 26 45 c32 55 123 134 327 286 464 344 560 417 725 554 275
229 470 434 593 624 26 40 51 72 55 73 5 0 47 -34 93 -75 46 -41 88 -75 93
-75 30 0 63 25 87 65 15 26 31 42 35 38 9 -9 99 -1236 99 -1344 0 -47 4 -60
19 -69 50 -26 96 2 88 54 -5 31 120 2166 127 2174 7 6 14 -45 71 -508 31 -250
60 -465 65 -477 12 -28 60 -31 81 -7 8 9 44 69 80 133 36 64 73 117 81 119 9
2 27 -15 44 -42 16 -25 40 -50 54 -56 17 -7 184 -10 496 -8 l470 3 51 42 c28
24 55 43 61 43 5 0 46 -57 91 -126 l81 -125 37 3 c36 3 39 7 78 80 22 43 43
78 47 78 13 0 16 -30 68 -700 28 -360 56 -661 62 -667 14 -17 63 -16 77 1 11
13 52 673 116 1846 15 283 22 366 30 359 2 -2 31 -218 65 -479 35 -270 67
-480 73 -487 11 -11 37 -17 64 -14 7 0 42 60 78 131 36 72 71 130 78 130 7 0
32 -25 56 -56 l43 -56 952 7 c523 4 957 8 964 10 7 3 12 21 12 44 0 36 -3 41
-27 47 -15 4 -433 4 -929 0 -495 -3 -908 -4 -917 0 -8 3 -42 39 -74 80 -54 70
-60 75 -93 72 -33 -3 -38 -8 -80 -88 -25 -47 -49 -84 -55 -83 -5 1 -49 305
-97 675 -48 370 -90 679 -93 686 -6 16 -70 16 -84 -1 -6 -8 -22 -218 -41 -543
-17 -291 -41 -722 -55 -957 -14 -236 -25 -443 -26 -460 0 -27 -2 -29 -9 -12
-5 11 -20 180 -35 375 -15 195 -32 363 -37 373 -7 13 -19 17 -45 15 -34 -3
-37 -7 -100 -125 -36 -68 -70 -123 -76 -123 -7 0 -43 49 -82 108 -86 131 -99
136 -178 70 -101 -85 -51 -78 -532 -78 l-432 0 -20 23 c-12 12 -37 48 -58 80
-62 99 -94 92 -169 -37 -28 -49 -56 -91 -62 -93 -15 -5 -11 -32 -106 726 -56
456 -86 668 -96 677 -17 18 -43 18 -67 0 -17 -12 -23 -87 -75 -955 -31 -518
-60 -944 -64 -948 -3 -3 -6 7 -6 23 0 16 -9 151 -20 299 -11 149 -20 284 -20
300 0 42 -11 55 -52 61 l-36 6 -58 -96 c-34 -56 -66 -96 -75 -96 -8 0 -43 25
-77 55 l-61 55 30 65 c16 35 41 104 56 152 23 77 26 105 27 228 0 161 -13 237
-58 352 -47 117 -90 184 -179 279 -128 136 -263 225 -454 299 -118 45 -191 62
-326 74 -205 20 -375 -12 -562 -103 -108 -53 -91 -58 75 -19 199 45 471 32
651 -33 177 -64 300 -143 420 -272 118 -127 176 -272 186 -465 9 -191 -25
-336 -124 -529 l-45 -88 -108 0 c-144 0 -145 1 -109 55 43 64 115 221 130 285
7 30 12 94 12 142 -2 160 -50 281 -155 394 -149 158 -347 244 -568 245 -118 0
-174 -10 -263 -47 -53 -23 -61 -24 -69 -10 -21 38 -151 185 -199 227 -149 127
-311 208 -499 250 -103 23 -363 25 -480 4z m349 -224 c97 -32 178 -76 241
-129 l34 -29 -79 -7 c-115 -10 -215 -40 -324 -96 -190 -98 -313 -217 -372
-358 -100 -240 -70 -440 102 -694 121 -178 345 -378 765 -683 194 -140 260
-196 270 -227 5 -17 12 -13 63 35 31 30 162 133 291 229 295 219 441 338 553
450 l89 88 124 0 125 0 -22 -33 c-13 -17 -71 -80 -129 -138 -105 -106 -245
-221 -585 -484 -339 -262 -486 -383 -607 -503 l-77 -76 -68 64 c-71 68 -247
209 -486 392 -319 244 -637 519 -738 639 -126 148 -226 327 -270 479 -33 116
-38 318 -10 432 62 259 236 470 494 598 137 68 242 91 402 87 104 -3 133 -8
214 -36z m1081 -317 c219 -12 352 -66 481 -194 98 -97 121 -152 127 -295 2
-56 -1 -124 -8 -155 -16 -77 -90 -224 -147 -295 l-49 -60 -139 -5 -140 -5 0
-45 0 -45 85 -5 85 -5 -180 -140 c-290 -226 -425 -336 -491 -398 l-63 -58
-179 143 c-98 79 -237 189 -308 245 -362 285 -480 446 -509 694 -28 246 167
507 430 574 147 37 329 0 414 -86 26 -26 138 -239 155 -294 5 -17 -12 -30
-119 -89 -69 -39 -125 -73 -125 -77 0 -4 6 -9 13 -12 6 -3 178 -73 380 -156
203 -83 372 -151 377 -151 10 0 14 25 39 216 34 257 62 537 54 545 -5 4 -62
-18 -127 -49 -99 -47 -121 -54 -128 -42 -30 52 -138 250 -138 256 0 3 21 3 48
0 26 -3 99 -8 162 -12z"/>
</g>
</svg>
