<?xml version="1.0" standalone="no"?>
<!DOCTYPE svg PUBLIC "-//W3C//DTD SVG 20010904//EN"
 "http://www.w3.org/TR/2001/REC-SVG-20010904/DTD/svg10.dtd">
<svg version="1.0" xmlns="http://www.w3.org/2000/svg"
 width="1280.000000pt" height="640.000000pt" viewBox="0 0 1280.000000 640.000000"
 preserveAspectRatio="xMidYMid meet">
<metadata>
Created by potrace 1.15, written by Peter Selinger 2001-2017
</metadata>
<g transform="translate(0.000000,640.000000) scale(0.100000,-0.100000)"
fill="#000000" stroke="none">
<path d="M5256 6369 c-311 -26 -575 -151 -778 -369 -250 -267 -374 -661 -327
-1045 59 -483 361 -988 956 -1596 l173 -176 -68 -6 c-37 -4 -465 -7 -952 -7
-823 0 -887 -2 -907 -18 -11 -9 -60 -82 -109 -162 -48 -80 -93 -152 -101 -160
-11 -12 -13 -11 -13 8 0 12 -25 288 -55 614 -30 326 -77 841 -105 1143 -156
1703 -156 1703 -173 1729 -9 14 -34 30 -55 37 -32 9 -44 8 -70 -5 -18 -9 -38
-26 -46 -39 -10 -15 -22 -120 -41 -347 -14 -179 -48 -597 -75 -930 -27 -333
-59 -720 -70 -860 -11 -140 -43 -527 -70 -860 -27 -333 -59 -720 -70 -860 -11
-140 -29 -361 -40 -490 -11 -129 -31 -379 -45 -555 -30 -380 -29 -375 -37
-355 -3 8 -22 125 -42 260 -19 135 -72 486 -116 780 -44 294 -125 834 -180
1200 -55 366 -104 681 -110 701 -13 47 -39 69 -88 76 -33 4 -44 1 -71 -23 -30
-27 -39 -54 -135 -404 -57 -206 -109 -394 -115 -417 l-12 -43 -654 0 -655 0 0
-105 0 -105 710 0 710 0 30 28 c26 23 37 50 75 190 25 90 52 189 62 220 l16
57 23 -145 c12 -80 54 -356 93 -615 39 -258 107 -711 151 -1005 143 -950 220
-1463 232 -1545 10 -69 16 -84 45 -114 30 -30 38 -33 76 -28 49 7 83 40 91 90
3 17 31 343 61 722 31 380 67 825 80 990 14 165 49 606 80 980 56 686 80 989
115 1410 10 127 29 359 42 518 12 158 25 287 28 287 3 0 20 -165 38 -368 18
-202 51 -558 72 -792 22 -234 58 -623 80 -865 53 -589 47 -543 80 -577 33 -32
91 -38 127 -13 12 8 97 139 189 290 l167 275 1058 0 1057 0 31 26 c36 30 49
80 29 117 -7 14 -98 106 -203 204 -509 481 -835 905 -988 1288 -85 213 -112
361 -104 563 8 202 57 369 160 545 59 100 209 249 314 311 343 203 841 190
1147 -28 94 -67 223 -210 283 -312 66 -115 86 -134 135 -134 55 0 72 12 109
77 59 104 111 175 188 256 92 97 172 155 283 206 141 66 198 76 403 75 168 0
188 -3 297 -32 374 -98 625 -328 731 -667 100 -321 36 -704 -184 -1099 -182
-329 -395 -594 -796 -994 -258 -257 -263 -263 -263 -303 0 -31 6 -47 29 -70
l29 -29 409 -1 c224 -1 738 -5 1142 -8 l733 -6 149 -270 c81 -148 160 -280
174 -293 28 -24 82 -29 116 -12 10 6 25 23 33 38 16 32 8 -42 146 1357 60 611
113 1135 117 1165 8 62 6 80 93 -990 28 -344 71 -870 95 -1170 79 -971 94
-1155 145 -1785 71 -867 68 -843 85 -869 39 -59 131 -59 169 -1 10 15 107 620
266 1656 138 899 254 1641 257 1649 3 8 31 -77 63 -190 48 -169 63 -208 85
-227 l26 -23 640 0 639 0 0 100 0 100 -581 2 -582 3 -108 385 c-60 212 -109
388 -109 392 0 3 -11 20 -25 36 -45 54 -114 50 -156 -8 -15 -20 -65 -328 -233
-1415 -118 -765 -218 -1414 -222 -1443 -4 -29 -8 -51 -11 -49 -2 3 -24 249
-48 548 -73 892 -121 1488 -175 2149 -28 344 -73 900 -101 1235 -27 336 -59
732 -70 880 -24 306 -30 331 -92 354 -34 13 -42 12 -72 -2 -19 -9 -40 -27 -48
-39 -9 -14 -22 -103 -36 -238 -12 -118 -64 -645 -116 -1170 -52 -525 -117
-1184 -145 -1465 -28 -280 -52 -514 -53 -519 -2 -6 -40 58 -85 141 -46 82 -94
161 -108 174 l-26 24 -1034 3 c-569 1 -1034 5 -1034 9 0 3 71 78 158 167 805
824 1111 1566 906 2200 -135 418 -468 704 -934 802 -359 75 -676 19 -947 -168
-88 -61 -223 -193 -274 -267 -19 -28 -36 -51 -39 -51 -3 0 -38 40 -78 88 -256
313 -627 459 -1066 421z"/>
</g>
</svg>
